<?xml version="1.0" encoding="UTF-8" standalone="no"?><!DOCTYPE svg PUBLIC "-//W3C//DTD SVG 1.1//EN" "http://www.w3.org/Graphics/SVG/1.1/DTD/svg11.dtd"><svg width="100%" height="100%" viewBox="0 0 25 25" version="1.1" xmlns="http://www.w3.org/2000/svg" xmlns:xlink="http://www.w3.org/1999/xlink" xml:space="preserve" xmlns:serif="http://www.serif.com/" style="fill-rule:evenodd;clip-rule:evenodd;stroke-linejoin:round;stroke-miterlimit:1.41421;"><g><path d="M14.063,18.75c-0.001,-0.863 -0.7,-1.563 -1.563,-1.563c-0.863,0 -1.563,0.7 -1.563,1.563c0.001,0.863 0.7,1.563 1.563,1.563c0.863,0 1.563,-0.7 1.563,-1.563Z" style="fill:#bababa;fill-rule:nonzero;"/><path d="M14.063,12.5c-0.001,-0.863 -0.7,-1.563 -1.563,-1.563c-0.863,0.001 -1.563,0.7 -1.563,1.563c0.001,0.863 0.7,1.563 1.563,1.563c0.863,-0.001 1.563,-0.7 1.563,-1.563Z" style="fill:#bababa;fill-rule:nonzero;"/><path d="M14.063,6.25c-0.001,-0.863 -0.7,-1.563 -1.563,-1.563c-0.863,0 -1.563,0.7 -1.563,1.563c0.001,0.863 0.7,1.563 1.563,1.563c0.863,0 1.563,-0.7 1.563,-1.563Z" style="fill:#bababa;fill-rule:nonzero;"/></g></svg>